<svg width="28" height="28" viewBox="0 0 28 28" fill="none" xmlns="http://www.w3.org/2000/svg">
<path d="M23.5 14.568L20.591 11.659C20.3821 11.4501 20.134 11.2843 19.861 11.1713C19.5881 11.0582 19.2955 11 19 11C18.7045 11 18.4119 11.0582 18.139 11.1713C17.866 11.2843 17.6179 11.4501 17.409 11.659L16 13.068L15 14" stroke="black" stroke-width="1.5" stroke-linecap="round" stroke-linejoin="round"/>
<path d="M4 17.25L9.159 12.091C9.36793 11.8821 9.61597 11.7163 9.88896 11.6033C10.1619 11.4902 10.4545 11.432 10.75 11.432C11.0455 11.432 11.3381 11.4902 11.611 11.6033C11.884 11.7163 12.1321 11.8821 12.341 12.091L18.5 18M23.5 14.5V13.75V13V7.5C23.5 7.10218 23.342 6.72064 23.0607 6.43934C22.7794 6.15804 22.3978 6 22 6H5.5C5.10218 6 4.72064 6.15804 4.43934 6.43934C4.15804 6.72064 4 7.10218 4 7.5V19.5C4 19.8978 4.15804 20.2794 4.43934 20.5607C4.72064 20.842 5.10218 21 5.5 21H15H17M15 9.75H15.008V9.758H15V9.75ZM15.375 9.75C15.375 9.84946 15.3355 9.94484 15.2652 10.0152C15.1948 10.0855 15.0995 10.125 15 10.125C14.9005 10.125 14.8052 10.0855 14.7348 10.0152C14.6645 9.94484 14.625 9.84946 14.625 9.75C14.625 9.65054 14.6645 9.55516 14.7348 9.48484C14.8052 9.41451 14.9005 9.375 15 9.375C15.0995 9.375 15.1948 9.41451 15.2652 9.48484C15.3355 9.55516 15.375 9.65054 15.375 9.75Z" stroke="black" stroke-width="1.5" stroke-linecap="round" stroke-linejoin="round"/>
<path d="M20.1236 14.5728L20.1237 14.5728L20.1205 14.5697C19.9835 14.4416 19.8022 14.3718 19.6148 14.3751C19.4274 14.3784 19.2487 14.4546 19.1163 14.5875C18.984 14.7204 18.9082 14.8995 18.9049 15.0872C18.9016 15.2749 18.971 15.4566 19.0986 15.5941L19.0986 15.5941L19.1017 15.5973L21.9787 18.485L19.1032 21.3713C19.033 21.4374 18.9767 21.5169 18.9375 21.6051C18.898 21.694 18.8768 21.7899 18.8751 21.8872C18.8734 21.9845 18.8912 22.0811 18.9275 22.1714C18.9639 22.2616 19.0179 22.3436 19.0865 22.4125C19.1551 22.4814 19.2369 22.5357 19.3269 22.5722C19.417 22.6087 19.5134 22.6266 19.6105 22.6249C19.7076 22.6232 19.8034 22.6018 19.8921 22.5622C19.9801 22.5228 20.0593 22.4662 20.1251 22.3958L23 19.5101L25.8749 22.3958C25.9407 22.4662 26.0199 22.5228 26.1079 22.5622C26.1966 22.6018 26.2924 22.6232 26.3895 22.6249C26.4866 22.6266 26.583 22.6087 26.6731 22.5722C26.7631 22.5357 26.8449 22.4814 26.9135 22.4125C26.9821 22.3436 27.0361 22.2616 27.0725 22.1714C27.1088 22.0811 27.1266 21.9845 27.1249 21.8872C27.1232 21.7899 27.102 21.694 27.0625 21.6051C27.0234 21.5169 26.967 21.4374 26.8968 21.3713L24.0213 18.485L26.8983 15.5973L26.8984 15.5973L26.9014 15.5941C27.029 15.4566 27.0984 15.2749 27.0951 15.0872C27.0918 14.8995 27.016 14.7204 26.8837 14.5875C26.7513 14.4546 26.5726 14.3784 26.3852 14.3751C26.1978 14.3718 26.0165 14.4416 25.8795 14.5697L25.8795 14.5697L25.8764 14.5728L23 17.4599L20.1236 14.5728Z" fill="black" stroke="black" stroke-width="0.25"/>
</svg>
